<svg viewBox="0 0 25 31" fill="none" xmlns="http://www.w3.org/2000/svg">
<path d="M24.2758 5.59976L24.239 5.26636L23.9897 5.04196C20.8855 2.24455 16.7678 0.704224 12.3947 0.704224L11.5137 1.58528L12.3947 2.46634C16.215 2.46634 19.8114 3.76575 22.5612 6.13205C22.8662 8.9341 23.0271 10.9186 23.0271 11.8834C23.0271 19.1963 18.8668 25.8125 12.3947 28.8514L11.5137 29.82L12.3947 30.7802L12.7519 30.6254C20.0642 27.383 24.7893 20.0263 24.7893 11.8834C24.7893 10.8017 24.6165 8.68738 24.2758 5.59976Z" fill="#0E72CF"/>
<path d="M12.3945 28.8514C5.92242 25.8128 1.76212 19.1963 1.76212 11.8834C1.76212 10.9189 1.92302 8.9341 2.22801 6.13205C4.97787 3.76575 8.57458 2.46634 12.3948 2.46634V0.704224C8.02171 0.704224 3.90373 2.24484 0.799591 5.04196L0.550262 5.26665L0.513443 5.60005C0.172791 8.68767 0 10.8017 0 11.8834C0 20.0263 4.72507 27.383 12.0376 30.6254L12.3948 30.7802C12.3948 30.7802 12.3948 28.8514 12.3945 28.8514Z" fill="#0E72CF"/>
</svg>
