<svg width="18" height="18" viewBox="0 0 18 18" fill="none" xmlns="http://www.w3.org/2000/svg">
<path fill-rule="evenodd" clip-rule="evenodd" d="M3.83331 2H9.16669C11.0076 2 12.5 3.45496 12.5 5.24969V9.14935C12.5 10.9441 11.0076 12.399 9.16669 12.399H6.77606L4.30475 14.8083C3.88477 15.2178 3.16669 14.9278 3.16669 14.3488V12.3336C1.64716 12.0316 0.5 10.719 0.5 9.14935V5.24969C0.5 3.45496 1.99237 2 3.83331 2ZM6.30469 8.30896L8.97131 5.7092C9.23175 5.45535 9.23175 5.04401 8.97137 4.79016C8.711 4.53629 8.28906 4.53629 8.02869 4.79016L5.83331 6.93039L4.97131 6.09003C4.71094 5.83615 4.289 5.83615 4.02863 6.09003C3.76825 6.3439 3.76825 6.75522 4.02863 7.00909L5.36194 8.30896C5.62225 8.56274 6.04437 8.56274 6.30469 8.30896ZM9.3335 14.899C8.50476 14.899 7.7467 14.6042 7.16357 14.1163L7.38641 13.899H9.16687C11.8 13.899 14.0002 11.8082 14.0002 9.14935V5.24969C14.0002 4.99411 13.9799 4.74374 13.9407 4.5H14.6669C16.5078 4.5 18.0002 5.95496 18.0002 7.74969V11.6494C18.0002 13.219 16.853 14.5316 15.3335 14.8336V16.8488C15.3335 17.4278 14.6154 17.7178 14.1954 17.3083L11.7241 14.899H9.3335Z" fill="white"/>
</svg>
