<svg width="28" height="59" viewBox="0 0 28 59" fill="none" xmlns="http://www.w3.org/2000/svg">
<path d="M14.8403 13.6473V0.787008C14.8403 0.349781 14.4802 0 14.0301 0C13.5801 0 13.22 0.349781 13.22 0.787008V13.6473C11.3418 14.0146 9.91956 15.6294 9.91956 17.5649C9.91956 19.5003 11.3418 21.1151 13.22 21.4824V27.2072C13.22 27.6444 13.5801 27.9942 14.0301 27.9942C14.4802 27.9942 14.8403 27.6444 14.8403 27.2072V21.4824C16.7185 21.1151 18.1407 19.5003 18.1407 17.5649C18.1407 15.6352 16.7245 14.0146 14.8403 13.6473ZM14.0301 19.9842C12.6559 19.9842 11.5398 18.8999 11.5398 17.5649C11.5398 16.2299 12.6559 15.1455 14.0301 15.1455C15.4043 15.1455 16.5205 16.2299 16.5205 17.5649C16.5205 18.8999 15.4043 19.9842 14.0301 19.9842Z" fill="#A9A5A5"/>
<path d="M4.9207 7.0481V0.787008C4.9207 0.349781 4.56065 0 4.11059 0C3.66052 0 3.30047 0.349781 3.30047 0.787008V7.0481C1.4222 7.41537 0 9.03019 0 10.9656C0 12.9011 1.4222 14.5159 3.30047 14.8832V27.2072C3.30047 27.6444 3.66052 27.9942 4.11059 27.9942C4.56065 27.9942 4.9207 27.6444 4.9207 27.2072V14.8774C6.79897 14.5101 8.22117 12.8953 8.22117 10.9598C8.22117 9.02436 6.79897 7.41537 4.9207 7.0481ZM4.11059 13.385C2.73639 13.385 1.62023 12.3006 1.62023 10.9656C1.62023 9.63065 2.73639 8.54633 4.11059 8.54633C5.48478 8.54633 6.60094 9.63065 6.60094 10.9656C6.60094 12.3006 5.47878 13.385 4.11059 13.385Z" fill="#A9A5A5"/>
</svg>
