<svg fill="#DADADA" width="20" height="28" viewBox="0 0 20 28" xmlns="http://www.w3.org/2000/svg">
<path d="M15.8401 13.6473V0.787008C15.8401 0.349781 15.4801 0 15.03 0C14.58 0 14.2199 0.349781 14.2199 0.787008V13.6473C12.3416 14.0146 10.9194 15.6294 10.9194 17.5649C10.9194 19.5003 12.3416 21.1151 14.2199 21.4824V27.2072C14.2199 27.6444 14.58 27.9942 15.03 27.9942C15.4801 27.9942 15.8401 27.6444 15.8401 27.2072V21.4824C17.7184 21.1151 19.1406 19.5003 19.1406 17.5649C19.1406 15.6352 17.7244 14.0146 15.8401 13.6473ZM15.03 19.9842C13.6558 19.9842 12.5397 18.8999 12.5397 17.5649C12.5397 16.2299 13.6558 15.1455 15.03 15.1455C16.4042 15.1455 17.5204 16.2299 17.5204 17.5649C17.5204 18.8999 16.4042 19.9842 15.03 19.9842Z"/>
<path d="M5.9207 7.0481V0.787008C5.9207 0.349781 5.56065 0 5.11059 0C4.66052 0 4.30047 0.349781 4.30047 0.787008V7.0481C2.4222 7.41537 1 9.03019 1 10.9656C1 12.9011 2.4222 14.5159 4.30047 14.8832V27.2072C4.30047 27.6444 4.66052 27.9942 5.11059 27.9942C5.56065 27.9942 5.9207 27.6444 5.9207 27.2072V14.8774C7.79897 14.5101 9.22117 12.8953 9.22117 10.9598C9.22117 9.02436 7.79897 7.41537 5.9207 7.0481ZM5.11059 13.385C3.73639 13.385 2.62023 12.3006 2.62023 10.9656C2.62023 9.63065 3.73639 8.54633 5.11059 8.54633C6.48478 8.54633 7.60094 9.63065 7.60094 10.9656C7.60094 12.3006 6.47878 13.385 5.11059 13.385Z"/>
</svg>
