<svg width="18" height="18" viewBox="0 0 18 18" fill="none" xmlns="http://www.w3.org/2000/svg">
<path fill-rule="evenodd" clip-rule="evenodd" d="M17.0727 12.4639H17.0808C17.5849 12.4639 17.9956 12.8578 18 13.3608C18.0043 13.8664 17.5963 14.269 17.0885 14.2733L15.883 14.2836C15.8678 14.2838 15.8528 14.2838 15.8377 14.2838C14.17 14.2838 12.5755 13.4979 11.5647 12.1753L11.1911 11.6866L10.862 11.9284C9.3084 13.0701 8.25451 14.7391 7.89453 16.6282L7.87025 16.7552C7.78646 17.1941 7.40086 17.5 6.968 17.5C6.91112 17.5 6.85331 17.4947 6.79533 17.4837C6.29652 17.3893 5.9689 16.91 6.06372 16.4132L6.08793 16.2865C6.53464 13.9427 7.84236 11.8715 9.7702 10.4549L10.0984 10.2137L9.71516 7.23642C8.76258 7.87264 7.64438 8.21417 6.49076 8.21417C6.26599 8.21417 6.03994 8.20123 5.81358 8.1751C5.30912 8.11681 4.94773 7.66236 5.0062 7.16006C5.06474 6.65776 5.5212 6.29817 6.02547 6.35603C7.21446 6.49344 8.38966 6.09649 9.24944 5.26713L9.89316 4.64629C9.89409 4.64537 9.89507 4.6445 9.89606 4.64366C9.89782 4.64217 9.89962 4.64075 9.90131 4.63915C9.91528 4.62603 9.92981 4.61364 9.94458 4.60143C9.947 4.59942 9.94941 4.59739 9.95183 4.59536C9.95864 4.58963 9.96546 4.5839 9.97247 4.57854C9.98425 4.56955 9.99648 4.56117 10.0087 4.5528L10.0121 4.55046C10.0147 4.5487 10.0172 4.54693 10.0198 4.54516C10.0292 4.53864 10.0385 4.53212 10.0482 4.52616C10.0567 4.52092 10.0654 4.5161 10.0742 4.51128C10.0773 4.50953 10.0805 4.50779 10.0837 4.50602C10.0862 4.50459 10.0888 4.50315 10.0913 4.50171C10.103 4.49511 10.1148 4.4885 10.1268 4.48258C10.135 4.47857 10.1434 4.47497 10.1518 4.47137C10.1554 4.46983 10.159 4.46829 10.1626 4.46671C10.1655 4.46545 10.1683 4.46418 10.1712 4.46291C10.1833 4.45755 10.1954 4.45219 10.2078 4.44754C10.2188 4.44339 10.23 4.43986 10.2413 4.43633C10.2446 4.43529 10.2479 4.43425 10.2512 4.4332C10.2552 4.43191 10.2592 4.43058 10.2632 4.42925C10.2724 4.42622 10.2815 4.42319 10.2908 4.42069C10.3064 4.41644 10.3224 4.41312 10.3383 4.4098C10.3407 4.4093 10.3431 4.4088 10.3455 4.4083C10.3495 4.40748 10.3535 4.40659 10.3574 4.40569C10.3636 4.4043 10.3697 4.4029 10.376 4.40183C10.3961 4.39835 10.4165 4.39621 10.4369 4.39407L10.437 4.39407C10.4406 4.3937 10.4441 4.39326 10.4477 4.39281C10.453 4.39215 10.4583 4.39148 10.4637 4.39108C10.4831 4.38968 10.5025 4.38943 10.5221 4.38925C10.5327 4.38913 10.5433 4.38864 10.5539 4.38888C10.568 4.38925 10.5821 4.39036 10.5962 4.39147C10.5987 4.39167 10.6012 4.39187 10.6037 4.39206C10.6067 4.39229 10.6096 4.39251 10.6126 4.39273C10.6238 4.39356 10.635 4.39438 10.6462 4.39578C10.657 4.39713 10.6679 4.39902 10.6788 4.4009C10.6812 4.40131 10.6836 4.40172 10.6859 4.40213C10.7037 4.40512 10.7213 4.40817 10.7388 4.4122C10.7427 4.41306 10.7466 4.41348 10.7504 4.4144L12.407 4.81635C13.6343 5.11411 14.7487 5.81607 15.5448 6.79284L16.0424 7.40331C16.3624 7.79592 16.3023 8.37251 15.908 8.69126C15.7376 8.82897 15.5327 8.89605 15.3291 8.89605C15.0617 8.89605 14.7965 8.78044 14.6147 8.55752L14.1171 7.94724C13.6742 7.40385 13.0873 6.98524 12.4319 6.73827L12.8395 9.90651C12.8742 10.1755 12.8278 10.4374 12.7198 10.6659L13.0278 11.0716C13.6985 11.9491 14.7609 12.4712 15.8672 12.4633L17.0727 12.4639ZM11.2635 2.322C11.2635 3.32831 10.4443 4.14405 9.43381 4.14405C8.42331 4.14405 7.60417 3.32837 7.60417 2.32206C7.60417 1.31574 8.42337 0.5 9.43381 0.5C10.4443 0.5 11.2635 1.31568 11.2635 2.322ZM3 14.5C4.10457 14.5 5 13.6046 5 12.5C5 11.3954 4.10457 10.5 3 10.5C1.89543 10.5 1 11.3954 1 12.5C1 13.6046 1.89543 14.5 3 14.5Z" fill="white"/>
</svg>
