
<svg width="8" height="10" viewBox="0 0 8 10" fill="none" xmlns="http://www.w3.org/2000/svg">
<path d="M7.77777 3.75H7.1111V2.91666C7.1111 1.3084 5.7155 0 4 0C2.2845 0 0.888896 1.3084 0.888896 2.91666V3.75H0.222229C0.0993958 3.75 0 3.84318 0 3.95834V9.16668C0 9.62627 0.398646 10 0.888896 10H7.11113C7.60135 10 8 9.62627 8 9.16666V3.95834C8 3.84318 7.9006 3.75 7.77777 3.75ZM4.66537 8.10201C4.67231 8.1608 4.65215 8.2198 4.61004 8.26396C4.56794 8.30811 4.5076 8.33334 4.44446 8.33334H3.55556C3.49242 8.33334 3.43208 8.30811 3.38998 8.26396C3.34787 8.21982 3.32769 8.16082 3.33465 8.10201L3.47483 6.92018C3.24719 6.76494 3.11112 6.51937 3.11112 6.25C3.11112 5.79041 3.50977 5.41666 4.00002 5.41666C4.49027 5.41666 4.88892 5.79039 4.88892 6.25C4.88892 6.51937 4.75285 6.76494 4.52521 6.92018L4.66537 8.10201ZM5.77777 3.75H2.22223V2.91666C2.22223 1.99768 3.01975 1.25 4 1.25C4.98025 1.25 5.77777 1.99768 5.77777 2.91666V3.75Z" fill="#C4C4C4"/>
</svg>
