<svg width="18" height="12" viewBox="0 0 18 12" fill="none" xmlns="http://www.w3.org/2000/svg">
<path fill-rule="evenodd" clip-rule="evenodd" d="M8.8 0C4.8 0 1.384 2.488 0 6C1.384 9.512 4.8 12 8.8 12C12.8 12 16.216 9.512 17.6 6C16.216 2.488 12.8 0 8.8 0ZM8.80002 10.0001C6.59202 10.0001 4.80002 8.20806 4.80002 6.00006C4.80002 3.79206 6.59202 2.00006 8.80002 2.00006C11.008 2.00006 12.8 3.79206 12.8 6.00006C12.8 8.20806 11.008 10.0001 8.80002 10.0001ZM6.39999 6.00004C6.39999 4.67204 7.47199 3.60004 8.79999 3.60004C10.128 3.60004 11.2 4.67204 11.2 6.00004C11.2 7.32804 10.128 8.40004 8.79999 8.40004C7.47199 8.40004 6.39999 7.32804 6.39999 6.00004Z" fill="#C4C4C4"/>
</svg>
