<svg width="12" height="8" viewBox="0 0 12 8" fill="none" xmlns="http://www.w3.org/2000/svg">
<path d="M0.920262 0.472615L5.11164 3.73333C5.3017 3.88102 5.56361 3.94666 5.818 3.93436C6.07197 3.94666 6.33388 3.88143 6.52394 3.73333L10.7153 0.472615C11.0512 0.212923 10.9751 0 10.5491 0H5.81842H1.08777C0.661277 0 0.585253 0.212923 0.920262 0.472615Z" fill="#C4C4C4"/>
<path d="M11.0181 1.33292L6.43786 4.7483C6.2666 4.87466 6.04228 4.9362 5.8188 4.93333C5.59491 4.9362 5.37059 4.87425 5.19933 4.7483L0.618222 1.33292C0.2782 1.07979 0 1.21559 0 1.63446V7.23815C0 7.65702 0.349212 7.99999 0.775701 7.99999H5.81797H10.8607C11.2871 7.99999 11.6364 7.65702 11.6364 7.23815V1.63446C11.6364 1.21559 11.3582 1.07979 11.0181 1.33292Z" fill="#C4C4C4"/>
</svg>
