<svg version="1.1" id="Слой_1" xmlns="http://www.w3.org/2000/svg" xmlns:xlink="http://www.w3.org/1999/xlink" x="0px" y="0px"
	 width="14px" height="15px" viewBox="-992 1274 14 15" style="enable-background:new -992 1274 14 15;" xml:space="preserve">
<path d="M-992,1283.8l0,2.7c0,0.2,0.1,0.3,0.2,0.4c0.1,0.1,0.2,0.2,0.4,0.2l2.7,0c0.2,0,0.3-0.1,0.4-0.2l9.3-9.3
	c0.2-0.2,0.2-0.6,0-0.8l-2.7-2.7c-0.2-0.2-0.6-0.2-0.8,0l-1.9,1.9l-7.4,7.4C-991.9,1283.6-992,1283.7-992,1283.8z M-982.1,1275.4
	l1.9,1.9l-1.1,1.1l-1.9-1.9L-982.1,1275.4z M-990.8,1284.1l6.8-6.8l1.9,1.9l-6.8,6.8l-1.9,0L-990.8,1284.1z" fill="#C4C4C4"/>
<line x1="-992" y1="1288.5" x2="-978" y2="1288.5" stroke="rgba(196, 196, 196, 0.6)" stroke-miterlimit="10"/>
</svg>