<svg width="18" height="18" viewBox="0 0 18 18" fill="none" xmlns="http://www.w3.org/2000/svg">
<path d="M13.5115 4.25313L15.8768 6.56428C16.0345 6.71843 16.0417 6.96955 15.8931 7.13241L14.3465 8.82682C14.2026 8.98455 13.9614 9.00545 13.7923 8.87496L12.8321 8.13367L12.7348 14.5968C12.7314 14.8205 12.5488 15 12.3247 15H5.67539C5.45128 15 5.26865 14.8205 5.26529 14.5968L5.16797 8.13367L4.20771 8.87496C4.03862 9.00545 3.79747 8.98452 3.65354 8.82682L2.10695 7.13241C1.95828 6.96955 1.96544 6.71843 2.12322 6.56428L4.48845 4.25313C5.03918 3.71494 5.76704 3.41855 6.53786 3.41855H6.7404C6.76154 3.40125 6.78472 3.3858 6.80985 3.37259L7.42916 3.04723C7.62956 2.94189 7.87765 3.01871 7.98317 3.21877C8.01683 3.2826 8.03173 3.35125 8.03017 3.41858H9.9698C9.96824 3.35123 9.98315 3.2826 10.0168 3.21877C10.1224 3.01874 10.3703 2.94186 10.5708 3.04723L11.1901 3.37259C11.2153 3.3858 11.2384 3.40125 11.2596 3.41855H11.4621C12.2329 3.41855 12.9608 3.71494 13.5115 4.25313Z" fill="white"/>
</svg>
