<svg width="18" height="18" viewBox="0 0 18 18" fill="none" xmlns="http://www.w3.org/2000/svg">
<path d="M15.5162 4.5H10.6759C10.4084 4.5 10.1919 4.72364 10.1919 5.00001V5.99999C10.1919 6.27637 10.4084 6.50001 10.6759 6.50001H12.5945L7.37069 12.1543L3.18493 7.46767C2.98722 7.282 2.68074 7.29634 2.50023 7.49964L1.66195 8.26792C1.48144 8.47131 1.49532 8.78673 1.69303 8.97245L6.71416 14.2386C6.89921 14.413 7.1335 14.4996 7.36783 14.4996C7.60066 14.4996 7.83354 14.4139 8.01814 14.2415L14.0641 7.82136V10.0001C14.0641 10.2764 14.2806 10.5001 14.5482 10.5001H15.5162C15.7837 10.5001 16.0002 10.2764 16.0002 10.0001V5.00001C16.0002 4.72364 15.7837 4.5 15.5162 4.5Z" fill="white"/>
</svg>
