<svg width="18" height="18" viewBox="0 0 18 18" fill="none" xmlns="http://www.w3.org/2000/svg">
<path fill-rule="evenodd" clip-rule="evenodd" d="M7.88319 2.25C4.97974 2.25 2.62988 4.62454 2.62988 7.54889C2.62988 10.4732 4.97974 12.8478 7.88319 12.8478C8.90526 12.8478 9.85963 12.5531 10.6667 12.0436L13.4784 14.8554C13.8266 15.2035 14.391 15.2035 14.7391 14.8554C15.0873 14.5073 15.0873 13.9428 14.7391 13.5947L11.9935 10.8491C12.7089 9.9436 13.1365 8.79622 13.1365 7.54889C13.1365 4.62454 10.7866 2.25 7.88319 2.25ZM4.41278 7.54892C4.41278 5.6114 5.96867 4.04462 7.88319 4.04462C9.79771 4.04462 11.3536 5.6114 11.3536 7.54892C11.3536 9.48643 9.79771 11.0532 7.88319 11.0532C5.96867 11.0532 4.41278 9.48643 4.41278 7.54892Z" fill="white"/>
</svg>
