<svg fill="#DADADA" viewBox="0 0 13 14" xmlns="http://www.w3.org/2000/svg">
<path fill-rule="evenodd" clip-rule="evenodd" d="M12.5621 11.7715L9.65577 8.86511C10.4221 7.97803 10.8863 6.81816 10.8863 5.54889C10.8863 2.76046 8.6462 0.5 5.88295 0.5C3.1197 0.5 0.879639 2.76046 0.879639 5.54889C0.879639 8.33731 3.1197 10.5978 5.88295 10.5978C6.92727 10.5978 7.89687 10.2749 8.69905 9.72269L11.655 12.6786C11.9055 12.9291 12.3116 12.9291 12.5621 12.6786C12.8126 12.4281 12.8126 12.022 12.5621 11.7715ZM9.60336 5.54892C9.60336 7.62236 7.93767 9.30322 5.88295 9.30322C3.82822 9.30322 2.16254 7.62236 2.16254 5.54892C2.16254 3.47547 3.82822 1.79462 5.88295 1.79462C7.93767 1.79462 9.60336 3.47547 9.60336 5.54892Z"/>
<path d="M9.65577 8.86511L9.46659 8.70168L9.31465 8.87755L9.47899 9.04189L9.65577 8.86511ZM12.5621 11.7715L12.7389 11.5947V11.5947L12.5621 11.7715ZM8.69905 9.72269L8.87583 9.54591L8.72869 9.39878L8.5573 9.51677L8.69905 9.72269ZM11.655 12.6786L11.4782 12.8554L11.655 12.6786ZM12.5621 12.6786L12.7389 12.8554H12.7389L12.5621 12.6786ZM9.47899 9.04189L12.3853 11.9482L12.7389 11.5947L9.83254 8.68834L9.47899 9.04189ZM10.6363 5.54889C10.6363 6.75615 10.195 7.85847 9.46659 8.70168L9.84495 9.02855C10.6492 8.09759 11.1363 6.88017 11.1363 5.54889H10.6363ZM5.88295 0.75C8.506 0.75 10.6363 2.89639 10.6363 5.54889H11.1363C11.1363 2.62454 8.78641 0.25 5.88295 0.25V0.75ZM1.12964 5.54889C1.12964 2.89639 3.2599 0.75 5.88295 0.75V0.25C2.97949 0.25 0.629639 2.62454 0.629639 5.54889H1.12964ZM5.88295 10.3478C3.2599 10.3478 1.12964 8.20138 1.12964 5.54889H0.629639C0.629639 8.47324 2.97949 10.8478 5.88295 10.8478V10.3478ZM8.5573 9.51677C7.79535 10.0413 6.87491 10.3478 5.88295 10.3478V10.8478C6.97964 10.8478 7.99838 10.5085 8.84081 9.92862L8.5573 9.51677ZM11.8317 12.5018L8.87583 9.54591L8.52228 9.89947L11.4782 12.8554L11.8317 12.5018ZM12.3853 12.5018C12.2325 12.6547 11.9846 12.6547 11.8317 12.5018L11.4782 12.8554C11.8263 13.2035 12.3908 13.2035 12.7389 12.8554L12.3853 12.5018ZM12.3853 11.9482C12.5382 12.1011 12.5382 12.349 12.3853 12.5018L12.7389 12.8554C13.087 12.5073 13.087 11.9428 12.7389 11.5947L12.3853 11.9482ZM5.88295 9.55322C8.07788 9.55322 9.85336 7.75829 9.85336 5.54892H9.35336C9.35336 7.48643 7.79747 9.05322 5.88295 9.05322V9.55322ZM1.91254 5.54892C1.91254 7.75829 3.68802 9.55322 5.88295 9.55322V9.05322C3.96843 9.05322 2.41254 7.48643 2.41254 5.54892H1.91254ZM5.88295 1.54462C3.68802 1.54462 1.91254 3.33955 1.91254 5.54892H2.41254C2.41254 3.6114 3.96843 2.04462 5.88295 2.04462V1.54462ZM9.85336 5.54892C9.85336 3.33955 8.07788 1.54462 5.88295 1.54462V2.04462C7.79747 2.04462 9.35336 3.6114 9.35336 5.54892H9.85336Z" />
</svg>
